<svg xmlns="http://www.w3.org/2000/svg" viewBox="0 0 661.96 219.66"><defs><style>.cls-1{fill:#248256;}.cls-2{fill:#23b56e;}.cls-2,.cls-3{opacity:0.7;}.cls-3{fill:#e8ecf8;}</style></defs><title>mgmt_Asset 1gg</title><g id="Layer_2" data-name="Layer 2"><g id="Layer_1-2" data-name="Layer 1"><path class="cls-1" d="M0,219.66V0H662c-28.11,43-57.25,87.43-132.21,116.83C470.6,140,420.34,139.21,371.07,133.59c-.53.56-1.07,1.13-1.62,1.69s-1.09,1.13-1.64,1.69-1.1,1.12-1.66,1.68c-1.46,1.47-3,2.93-4.48,4.38-.67.64-1.36,1.28-2.05,1.92q-1.94,1.8-3.93,3.56-1.83,1.62-3.7,3.21c-.62.54-1.26,1.07-1.9,1.59l-1.92,1.57-2,1.57-2,1.55c-.67.53-1.34,1-2,1.54l-2.06,1.53-1.93,1.41c-.75.54-1.51,1.08-2.28,1.61l-1.53,1q-.48.35-1,.66c-.62.42-1.24.84-1.87,1.25l-2.24,1.47-1.93,1.23q-2.67,1.69-5.46,3.34c-3,1.78-6.15,3.54-9.38,5.25l-2.46,1.29-.11.05c-.86.45-1.73.89-2.61,1.33q-4,2-8.24,3.94c-2.52,1.15-5.11,2.28-7.75,3.38-4.14,1.72-8.42,3.4-12.88,5-1.25.45-2.51.9-3.78,1.34l-2.19.75c-.73.26-1.47.51-2.22.76q-8.1,2.7-16,4.84-3.15.89-6.27,1.65l-3.11.77c-2.07.5-4.12,1-6.17,1.42s-4.08.88-6.11,1.27l-3,.58c-1,.19-2,.37-3,.54l-3,.51-3,.48c-2,.31-4,.6-5.94.85-1,.14-2,.26-2.95.38l-2.92.35-3.36.35-1.56.16-3.82.34q-2.88.24-5.74.42c-1.67.11-3.33.2-5,.27l-2.22.1-1.56.06-1.88.06-1.77,0c-53.45,1.23-100.77-11.31-148.52-18.75C21.79,201.34,10.64,210.3,0,219.66Z"/><path class="cls-2" d="M371.07,133.59c-23.32,24.68-53.1,46.77-100.75,62.6-93.19,31-164.55,8-236.91-3.3C70.81,165.75,113.08,144,159,131.75,240.69,110,305,126.12,371.07,133.59Z"/><path class="cls-3" d="M371.07,133.59c41-43.3,62.22-94.52,125.62-133.59H662c-28.11,43-57.25,87.43-132.21,116.83C470.6,140,420.34,139.21,371.07,133.59Z"/></g></g></svg>