<svg xmlns="http://www.w3.org/2000/svg" xmlns:xlink="http://www.w3.org/1999/xlink" viewBox="0 0 1172.32 571"><defs><style>.cls-1{fill:url(#linear-gradient);}.cls-2{opacity:0.2;}.cls-3{fill:#ccc;}.cls-4{fill:#919191;}.cls-5{fill:#939393;}.cls-6{fill:#999;}.cls-7{fill:#fff;}.cls-8{fill:#bababa;}.cls-9{fill:#606060;}</style><linearGradient id="linear-gradient" y1="285.58" x2="782.82" y2="285.58" gradientUnits="userSpaceOnUse"><stop offset="0" stop-color="#248256"/><stop offset="1" stop-color="#33a86a"/></linearGradient></defs><title>mgmt_Asset 47a</title><g id="Layer_2" data-name="Layer 2"><g id="Layer_1-2" data-name="Layer 1"><polygon class="cls-1" points="782.82 287.25 782.82 570.67 0 570.67 0 254.86 25.54 254.86 25.54 213.06 137.93 213.06 137.93 254.86 163.47 254.86 163.47 376.84 182.54 376.84 182.54 264.34 216.43 264.34 216.43 173.52 296.4 173.52 296.4 264.34 319.35 264.34 319.35 136.37 348.94 136.37 348.94 100.53 368.12 100.53 368.12 0.5 412.3 0.5 412.3 100.53 431.47 100.53 431.47 136.37 461.06 136.37 461.06 140.54 525.66 140.54 525.66 178.05 546.08 178.05 546.08 133.48 563.49 133.48 563.49 112.4 574.77 112.4 574.77 53.55 600.76 53.55 600.76 112.4 612.03 112.4 612.03 133.48 629.44 133.48 629.44 293.65 631.14 293.65 631.14 311.79 636.11 311.79 636.11 287.25 659.03 287.25 659.03 249.74 759.9 249.74 759.9 287.25 782.82 287.25"/><g class="cls-2"><polygon class="cls-3" points="807.21 376.34 807.21 570.17 484.62 570.17 484.62 376.34 572.04 376.34 572.04 263.84 605.93 263.84 605.93 173.02 685.9 173.02 685.9 263.84 719.79 263.84 719.79 376.34 807.21 376.34"/><rect class="cls-4" x="638.46" y="284.39" width="24.4" height="24.4"/><rect class="cls-4" x="593.05" y="284.39" width="24.4" height="24.4"/><rect class="cls-4" x="683.87" y="284.39" width="24.4" height="24.4"/><rect class="cls-4" x="638.46" y="323.02" width="24.4" height="24.4"/><rect class="cls-4" x="593.05" y="323.02" width="24.4" height="24.4"/><rect class="cls-4" x="683.87" y="323.02" width="24.4" height="24.4"/><rect class="cls-4" x="638.46" y="361.65" width="24.4" height="24.4"/><rect class="cls-4" x="593.05" y="361.65" width="24.4" height="24.4"/><rect class="cls-4" x="683.87" y="361.65" width="24.4" height="24.4"/><rect class="cls-4" x="633.72" y="420.84" width="24.4" height="24.4"/><rect class="cls-4" x="576.11" y="420.84" width="24.4" height="24.4"/><rect class="cls-4" x="518.51" y="420.84" width="24.4" height="24.4"/><rect class="cls-4" x="748.93" y="420.84" width="24.4" height="24.4"/><rect class="cls-4" x="691.32" y="420.84" width="24.4" height="24.4"/><rect class="cls-4" x="633.72" y="462.86" width="24.4" height="24.4"/><rect class="cls-4" x="576.11" y="462.86" width="24.4" height="24.4"/><rect class="cls-4" x="518.51" y="462.86" width="24.4" height="24.4"/><rect class="cls-4" x="748.93" y="462.86" width="24.4" height="24.4"/><rect class="cls-4" x="691.32" y="462.86" width="24.4" height="24.4"/><rect class="cls-4" x="633.72" y="504.88" width="24.4" height="24.4"/><rect class="cls-4" x="576.11" y="504.88" width="24.4" height="24.4"/><rect class="cls-4" x="518.51" y="504.88" width="24.4" height="24.4"/><rect class="cls-4" x="748.93" y="504.88" width="24.4" height="24.4"/><rect class="cls-4" x="691.32" y="504.88" width="24.4" height="24.4"/><polygon class="cls-3" points="1018.94 132.98 1018.94 388.45 935.58 388.45 935.58 132.98 952.99 132.98 952.99 111.89 964.27 111.89 964.27 53.05 990.26 53.05 990.26 111.89 1001.53 111.89 1001.53 132.98 1018.94 132.98"/><rect class="cls-5" x="943.18" y="142.79" width="13.24" height="25.01"/><rect class="cls-5" x="961.49" y="142.79" width="13.24" height="25.01"/><rect class="cls-5" x="979.8" y="142.79" width="13.24" height="25.01"/><rect class="cls-5" x="998.1" y="142.79" width="13.24" height="25.01"/><rect class="cls-5" x="943.18" y="173.43" width="13.24" height="25.01"/><rect class="cls-5" x="961.49" y="173.43" width="13.24" height="25.01"/><rect class="cls-5" x="979.8" y="173.43" width="13.24" height="25.01"/><rect class="cls-5" x="998.1" y="173.43" width="13.24" height="25.01"/><rect class="cls-5" x="943.18" y="204.08" width="13.24" height="25.01"/><rect class="cls-5" x="961.49" y="204.08" width="13.24" height="25.01"/><rect class="cls-5" x="979.8" y="204.08" width="13.24" height="25.01"/><rect class="cls-5" x="998.1" y="204.08" width="13.24" height="25.01"/><rect class="cls-5" x="943.18" y="234.73" width="13.24" height="25.01"/><rect class="cls-5" x="961.49" y="234.73" width="13.24" height="25.01"/><rect class="cls-5" x="979.8" y="234.73" width="13.24" height="25.01"/><rect class="cls-5" x="998.1" y="234.73" width="13.24" height="25.01"/><rect class="cls-5" x="943.18" y="265.37" width="13.24" height="25.01"/><rect class="cls-5" x="961.49" y="265.37" width="13.24" height="25.01"/><rect class="cls-5" x="979.8" y="265.37" width="13.24" height="25.01"/><rect class="cls-5" x="998.1" y="265.37" width="13.24" height="25.01"/><rect class="cls-5" x="943.18" y="296.02" width="13.24" height="25.01"/><rect class="cls-5" x="961.49" y="296.02" width="13.24" height="25.01"/><rect class="cls-5" x="979.8" y="296.02" width="13.24" height="25.01"/><rect class="cls-5" x="998.1" y="296.02" width="13.24" height="25.01"/><rect class="cls-5" x="943.18" y="326.66" width="13.24" height="25.01"/><rect class="cls-5" x="961.49" y="326.66" width="13.24" height="25.01"/><rect class="cls-5" x="979.8" y="326.66" width="13.24" height="25.01"/><rect class="cls-5" x="998.1" y="326.66" width="13.24" height="25.01"/><polygon class="cls-6" points="1035.61 311.29 1035.61 530.99 963.93 530.99 963.93 311.29 978.9 311.29 978.9 293.15 988.6 293.15 988.6 242.55 1010.94 242.55 1010.94 293.15 1020.64 293.15 1020.64 311.29 1035.61 311.29"/><rect class="cls-7" x="970.46" y="319.72" width="11.39" height="21.51"/><rect class="cls-7" x="986.21" y="319.72" width="11.39" height="21.51"/><rect class="cls-7" x="1001.95" y="319.72" width="11.39" height="21.51"/><rect class="cls-7" x="1017.69" y="319.72" width="11.39" height="21.51"/><rect class="cls-7" x="970.46" y="346.08" width="11.39" height="21.51"/><rect class="cls-7" x="986.21" y="346.08" width="11.39" height="21.51"/><rect class="cls-7" x="1001.95" y="346.08" width="11.39" height="21.51"/><rect class="cls-7" x="1017.69" y="346.08" width="11.39" height="21.51"/><rect class="cls-7" x="970.46" y="372.43" width="11.39" height="21.51"/><rect class="cls-7" x="986.21" y="372.43" width="11.39" height="21.51"/><rect class="cls-7" x="1001.95" y="372.43" width="11.39" height="21.51"/><rect class="cls-7" x="1017.69" y="372.43" width="11.39" height="21.51"/><rect class="cls-7" x="970.46" y="398.79" width="11.39" height="21.51"/><rect class="cls-7" x="986.21" y="398.79" width="11.39" height="21.51"/><rect class="cls-7" x="1001.95" y="398.79" width="11.39" height="21.51"/><rect class="cls-7" x="1017.69" y="398.79" width="11.39" height="21.51"/><rect class="cls-7" x="970.46" y="425.14" width="11.39" height="21.51"/><rect class="cls-7" x="986.21" y="425.14" width="11.39" height="21.51"/><rect class="cls-7" x="1001.95" y="425.14" width="11.39" height="21.51"/><rect class="cls-7" x="1017.69" y="425.14" width="11.39" height="21.51"/><rect class="cls-7" x="970.46" y="451.5" width="11.39" height="21.51"/><rect class="cls-7" x="986.21" y="451.5" width="11.39" height="21.51"/><rect class="cls-7" x="1001.95" y="451.5" width="11.39" height="21.51"/><rect class="cls-7" x="1017.69" y="451.5" width="11.39" height="21.51"/><rect class="cls-7" x="970.46" y="477.86" width="11.39" height="21.51"/><rect class="cls-7" x="986.21" y="477.86" width="11.39" height="21.51"/><rect class="cls-7" x="1001.95" y="477.86" width="11.39" height="21.51"/><rect class="cls-7" x="1017.69" y="477.86" width="11.39" height="21.51"/><polygon class="cls-8" points="1172.32 287.58 1172.32 571 1025.61 571 1025.61 287.58 1048.53 287.58 1048.53 250.07 1149.4 250.07 1149.4 287.58 1172.32 287.58"/><rect class="cls-9" x="1090.21" y="305.09" width="17.51" height="17.51"/><rect class="cls-9" x="1117.51" y="305.09" width="17.51" height="17.51"/><rect class="cls-9" x="1144.81" y="305.09" width="17.51" height="17.51"/><rect class="cls-9" x="1062.91" y="305.09" width="17.51" height="17.51"/><rect class="cls-9" x="1035.61" y="305.09" width="17.51" height="17.51"/><rect class="cls-9" x="1090.21" y="337.32" width="17.51" height="17.51"/><rect class="cls-9" x="1117.51" y="337.32" width="17.51" height="17.51"/><rect class="cls-9" x="1144.81" y="337.32" width="17.51" height="17.51"/><rect class="cls-9" x="1062.91" y="337.32" width="17.51" height="17.51"/><rect class="cls-9" x="1035.61" y="337.32" width="17.51" height="17.51"/><rect class="cls-9" x="1090.21" y="369.55" width="17.51" height="17.51"/><rect class="cls-9" x="1117.51" y="369.55" width="17.51" height="17.51"/><rect class="cls-9" x="1144.81" y="369.55" width="17.51" height="17.51"/><rect class="cls-9" x="1062.91" y="369.55" width="17.51" height="17.51"/><rect class="cls-9" x="1035.61" y="369.55" width="17.51" height="17.51"/><rect class="cls-9" x="1090.21" y="401.78" width="17.51" height="17.51"/><rect class="cls-9" x="1117.51" y="401.78" width="17.51" height="17.51"/><rect class="cls-9" x="1144.81" y="401.78" width="17.51" height="17.51"/><rect class="cls-9" x="1062.91" y="401.78" width="17.51" height="17.51"/><rect class="cls-9" x="1035.61" y="401.78" width="17.51" height="17.51"/><rect class="cls-9" x="1090.21" y="434.02" width="17.51" height="17.51"/><rect class="cls-9" x="1117.51" y="434.02" width="17.51" height="17.51"/><rect class="cls-9" x="1144.81" y="434.02" width="17.51" height="17.51"/><rect class="cls-9" x="1062.91" y="434.02" width="17.51" height="17.51"/><rect class="cls-9" x="1035.61" y="434.02" width="17.51" height="17.51"/><rect class="cls-9" x="1090.21" y="466.25" width="17.51" height="17.51"/><rect class="cls-9" x="1117.51" y="466.25" width="17.51" height="17.51"/><rect class="cls-9" x="1144.81" y="466.25" width="17.51" height="17.51"/><rect class="cls-9" x="1062.91" y="466.25" width="17.51" height="17.51"/><rect class="cls-9" x="1035.61" y="466.25" width="17.51" height="17.51"/><rect class="cls-9" x="1090.21" y="498.48" width="17.51" height="17.51"/><rect class="cls-9" x="1117.51" y="498.48" width="17.51" height="17.51"/><rect class="cls-9" x="1144.81" y="498.48" width="17.51" height="17.51"/><rect class="cls-9" x="1062.91" y="498.48" width="17.51" height="17.51"/><rect class="cls-9" x="1035.61" y="498.48" width="17.51" height="17.51"/><polygon class="cls-8" points="938.09 177.55 938.09 460.97 791.38 460.97 791.38 177.55 814.3 177.55 814.3 140.04 915.16 140.04 915.16 177.55 938.09 177.55"/><rect class="cls-9" x="855.98" y="195.06" width="17.51" height="17.51"/><rect class="cls-9" x="883.28" y="195.06" width="17.51" height="17.51"/><rect class="cls-9" x="910.58" y="195.06" width="17.51" height="17.51"/><rect class="cls-9" x="828.68" y="195.06" width="17.51" height="17.51"/><rect class="cls-9" x="801.38" y="195.06" width="17.51" height="17.51"/><rect class="cls-9" x="855.98" y="227.29" width="17.51" height="17.51"/><rect class="cls-9" x="883.28" y="227.29" width="17.51" height="17.51"/><rect class="cls-9" x="910.58" y="227.29" width="17.51" height="17.51"/><rect class="cls-9" x="828.68" y="227.29" width="17.51" height="17.51"/><rect class="cls-9" x="801.38" y="227.29" width="17.51" height="17.51"/><rect class="cls-9" x="855.98" y="259.52" width="17.51" height="17.51"/><rect class="cls-9" x="883.28" y="259.52" width="17.51" height="17.51"/><rect class="cls-9" x="910.58" y="259.52" width="17.51" height="17.51"/><rect class="cls-9" x="828.68" y="259.52" width="17.51" height="17.51"/><rect class="cls-9" x="801.38" y="259.52" width="17.51" height="17.51"/><rect class="cls-9" x="855.98" y="291.75" width="17.51" height="17.51"/><rect class="cls-9" x="883.28" y="291.75" width="17.51" height="17.51"/><rect class="cls-9" x="910.58" y="291.75" width="17.51" height="17.51"/><rect class="cls-9" x="828.68" y="291.75" width="17.51" height="17.51"/><rect class="cls-9" x="801.38" y="291.75" width="17.51" height="17.51"/><rect class="cls-9" x="855.98" y="323.98" width="17.51" height="17.51"/><rect class="cls-9" x="883.28" y="323.98" width="17.51" height="17.51"/><rect class="cls-9" x="910.58" y="323.98" width="17.51" height="17.51"/><rect class="cls-9" x="828.68" y="323.98" width="17.51" height="17.51"/><rect class="cls-9" x="801.38" y="323.98" width="17.51" height="17.51"/><rect class="cls-9" x="855.98" y="356.22" width="17.51" height="17.51"/><rect class="cls-9" x="883.28" y="356.22" width="17.51" height="17.51"/><rect class="cls-9" x="910.58" y="356.22" width="17.51" height="17.51"/><rect class="cls-9" x="828.68" y="356.22" width="17.51" height="17.51"/><rect class="cls-9" x="801.38" y="356.22" width="17.51" height="17.51"/><rect class="cls-9" x="855.98" y="388.45" width="17.51" height="17.51"/><rect class="cls-9" x="883.28" y="388.45" width="17.51" height="17.51"/><rect class="cls-9" x="910.58" y="388.45" width="17.51" height="17.51"/><rect class="cls-9" x="828.68" y="388.45" width="17.51" height="17.51"/><rect class="cls-9" x="801.38" y="388.45" width="17.51" height="17.51"/><polygon class="cls-8" points="552.97 254.36 552.97 570.17 389.5 570.17 389.5 254.36 415.04 254.36 415.04 212.56 527.43 212.56 527.43 254.36 552.97 254.36"/><rect class="cls-9" x="461.48" y="273.87" width="19.51" height="19.51"/><rect class="cls-9" x="491.9" y="273.87" width="19.51" height="19.51"/><rect class="cls-9" x="522.32" y="273.87" width="19.51" height="19.51"/><rect class="cls-9" x="431.06" y="273.87" width="19.51" height="19.51"/><rect class="cls-9" x="400.64" y="273.87" width="19.51" height="19.51"/><rect class="cls-9" x="461.48" y="309.78" width="19.51" height="19.51"/><rect class="cls-9" x="491.9" y="309.78" width="19.51" height="19.51"/><rect class="cls-9" x="522.32" y="309.78" width="19.51" height="19.51"/><rect class="cls-9" x="431.06" y="309.78" width="19.51" height="19.51"/><rect class="cls-9" x="400.64" y="309.78" width="19.51" height="19.51"/><rect class="cls-9" x="461.48" y="345.7" width="19.51" height="19.51"/><rect class="cls-9" x="491.9" y="345.7" width="19.51" height="19.51"/><rect class="cls-9" x="522.32" y="345.7" width="19.51" height="19.51"/><rect class="cls-9" x="431.06" y="345.7" width="19.51" height="19.51"/><rect class="cls-9" x="400.64" y="345.7" width="19.51" height="19.51"/><rect class="cls-9" x="461.48" y="381.61" width="19.51" height="19.51"/><rect class="cls-9" x="491.9" y="381.61" width="19.51" height="19.51"/><rect class="cls-9" x="522.32" y="381.61" width="19.51" height="19.51"/><rect class="cls-9" x="431.06" y="381.61" width="19.51" height="19.51"/><rect class="cls-9" x="400.64" y="381.61" width="19.51" height="19.51"/><rect class="cls-9" x="461.48" y="417.53" width="19.51" height="19.51"/><rect class="cls-9" x="491.9" y="417.53" width="19.51" height="19.51"/><rect class="cls-9" x="522.32" y="417.53" width="19.51" height="19.51"/><rect class="cls-9" x="431.06" y="417.53" width="19.51" height="19.51"/><rect class="cls-9" x="400.64" y="417.53" width="19.51" height="19.51"/><rect class="cls-9" x="461.48" y="453.44" width="19.51" height="19.51"/><rect class="cls-9" x="491.9" y="453.44" width="19.51" height="19.51"/><rect class="cls-9" x="522.32" y="453.44" width="19.51" height="19.51"/><rect class="cls-9" x="431.06" y="453.44" width="19.51" height="19.51"/><rect class="cls-9" x="400.64" y="453.44" width="19.51" height="19.51"/><rect class="cls-9" x="461.48" y="489.36" width="19.51" height="19.51"/><rect class="cls-9" x="491.9" y="489.36" width="19.51" height="19.51"/><rect class="cls-9" x="522.32" y="489.36" width="19.51" height="19.51"/><rect class="cls-9" x="431.06" y="489.36" width="19.51" height="19.51"/><rect class="cls-9" x="400.64" y="489.36" width="19.51" height="19.51"/><polygon class="cls-3" points="1038.95 450.96 1038.95 570.17 840.56 570.17 840.56 450.96 894.32 450.96 894.32 381.78 915.16 381.78 915.16 325.93 964.34 325.93 964.34 381.78 985.18 381.78 985.18 450.96 1038.95 450.96"/><rect class="cls-4" x="935.17" y="394.42" width="15" height="15"/><rect class="cls-4" x="907.24" y="394.42" width="15" height="15"/><rect class="cls-4" x="963.09" y="394.42" width="15" height="15"/><rect class="cls-4" x="935.17" y="418.18" width="15" height="15"/><rect class="cls-4" x="907.24" y="418.18" width="15" height="15"/><rect class="cls-4" x="963.09" y="418.18" width="15" height="15"/><rect class="cls-4" x="935.17" y="441.93" width="15" height="15"/><rect class="cls-4" x="907.24" y="441.93" width="15" height="15"/><rect class="cls-4" x="963.09" y="441.93" width="15" height="15"/><rect class="cls-4" x="932.25" y="478.33" width="15" height="15"/><rect class="cls-4" x="896.82" y="478.33" width="15" height="15"/><rect class="cls-4" x="861.4" y="478.33" width="15" height="15"/><rect class="cls-4" x="1003.1" y="478.33" width="15" height="15"/><rect class="cls-4" x="967.68" y="478.33" width="15" height="15"/><rect class="cls-4" x="932.25" y="504.17" width="15" height="15"/><rect class="cls-4" x="896.82" y="504.17" width="15" height="15"/><rect class="cls-4" x="861.4" y="504.17" width="15" height="15"/><rect class="cls-4" x="1003.1" y="504.17" width="15" height="15"/><rect class="cls-4" x="967.68" y="504.17" width="15" height="15"/><rect class="cls-4" x="932.25" y="530.02" width="15" height="15"/><rect class="cls-4" x="896.82" y="530.02" width="15" height="15"/><rect class="cls-4" x="861.4" y="530.02" width="15" height="15"/><rect class="cls-4" x="1003.1" y="530.02" width="15" height="15"/><rect class="cls-4" x="967.68" y="530.02" width="15" height="15"/><polygon class="cls-3" points="850.56 135.87 850.56 570.17 708.85 570.17 708.85 135.87 738.44 135.87 738.44 100.03 757.62 100.03 757.62 0 801.79 0 801.79 100.03 820.97 100.03 820.97 135.87 850.56 135.87"/><rect class="cls-5" x="721.77" y="152.54" width="22.51" height="42.51"/><rect class="cls-5" x="752.89" y="152.54" width="22.51" height="42.51"/><rect class="cls-5" x="784.01" y="152.54" width="22.51" height="42.51"/><rect class="cls-5" x="815.13" y="152.54" width="22.51" height="42.51"/><rect class="cls-5" x="721.77" y="204.64" width="22.51" height="42.51"/><rect class="cls-5" x="752.89" y="204.64" width="22.51" height="42.51"/><rect class="cls-5" x="784.01" y="204.64" width="22.51" height="42.51"/><rect class="cls-5" x="815.13" y="204.64" width="22.51" height="42.51"/><rect class="cls-5" x="721.77" y="256.74" width="22.51" height="42.51"/><rect class="cls-5" x="752.89" y="256.74" width="22.51" height="42.51"/><rect class="cls-5" x="784.01" y="256.74" width="22.51" height="42.51"/><rect class="cls-5" x="815.13" y="256.74" width="22.51" height="42.51"/><rect class="cls-5" x="721.77" y="308.84" width="22.51" height="42.51"/><rect class="cls-5" x="752.89" y="308.84" width="22.51" height="42.51"/><rect class="cls-5" x="784.01" y="308.84" width="22.51" height="42.51"/><rect class="cls-5" x="815.13" y="308.84" width="22.51" height="42.51"/><rect class="cls-5" x="721.77" y="360.94" width="22.51" height="42.51"/><rect class="cls-5" x="752.89" y="360.94" width="22.51" height="42.51"/><rect class="cls-5" x="784.01" y="360.94" width="22.51" height="42.51"/><rect class="cls-5" x="815.13" y="360.94" width="22.51" height="42.51"/><rect class="cls-5" x="721.77" y="413.04" width="22.51" height="42.51"/><rect class="cls-5" x="752.89" y="413.04" width="22.51" height="42.51"/><rect class="cls-5" x="784.01" y="413.04" width="22.51" height="42.51"/><rect class="cls-5" x="815.13" y="413.04" width="22.51" height="42.51"/><rect class="cls-5" x="721.77" y="465.14" width="22.51" height="42.51"/><rect class="cls-5" x="752.89" y="465.14" width="22.51" height="42.51"/><rect class="cls-5" x="784.01" y="465.14" width="22.51" height="42.51"/><rect class="cls-5" x="815.13" y="465.14" width="22.51" height="42.51"/></g></g></g></svg>